#!OML:ASF F:\twosubjects\two\Thursday\Session 1\Rory.ASF
:FULLY-SPECIFIED
:DEGREES
378
root 3.39266 18.1438 -6.87329 -363.027 -53.6323 -353.205
lowerback 4.33982 0.165343 -1.84239
upperback 2.50254 0.122859 -1.03133
thorax 0.134058 0.0379179 -0.0293905
lowerneck -14.5728 1.24163 0.263581
upperneck 16.3534 2.14916 -2.93914
head 7.46846 0.744112 -0.780379
rclavicle -7.66066e-014 1.27222e-014
rhumerus -26.0367 11.8009 -87.2965
rradius 59.0549
rwrist 6.8074
rhand -27.4465 28.926
rfingers 7.12502
rthumb -0.851343 -1.05207
lclavicle -7.66066e-014 1.27222e-014
lhumerus -39.2718 -19.3993 91.246
lradius 89.3447
lwrist 22.6568
lhand -22.7542 53.6013
lfingers 7.12502
lthumb 3.68048 83.5492
rfemur 1.92518 6.84436 12.5454
rtibia 18.1404
rfoot -17.3161 -12.7306
rtoes -22.5317
lfemur -18.5256 7.09381 -16.7523
ltibia 13.5228
lfoot -18.0423 39.2316
ltoes 42.5754
379
root 3.42216 18.1336 -6.9606 -361.869 -53.898 -354.447
lowerback 3.99358 0.131903 -0.615577
upperback 2.60289 0.130106 -0.862393
thorax 0.43158 0.0530742 -0.54316
lowerneck -14.2969 1.30146 0.0648322
upperneck 15.9168 2.26741 -2.9686
head 7.27789 0.794531 -0.74548
rclavicle 1.04933e-013 -4.17448e-015
rhumerus -25.7083 11.3596 -87.207
rradius 57.6668
rwrist 7.29767
rhand -27.761 28.5723
rfingers 7.12502
rthumb -1.15511 -1.40432
lclavicle 1.04933e-013 -4.17448e-015
lhumerus -39.1957 -18.2012 90.6666
lradius 89.4984
lwrist 22.8308
lhand -22.7609 52.9467
lfingers 7.12502
lthumb 3.67401 82.8948
rfemur 1.74146 6.37864 13.5153
rtibia 17.4875
rfoot -17.2106 -12.8229
rtoes -22.8229
lfemur -18.7395 6.39887 -15.5851
ltibia 13.2973
lfoot -19.4541 39.4456
ltoes 44.3432
380
root 3.45594 18.1191 -7.0651 -361.623 -54.4085 -355.194
lowerback 4.45412 0.165125 0.0578019
upperback 2.75845 0.191802 -0.73972
thorax 0.336686 0.0898207 -0.798408
lowerneck -14.2897 1.36944 0.0243992
upperneck 15.8605 2.37764 -3.02463
head 7.26054 0.840339 -0.74561
rclavicle 5.59082e-014 -2.32578e-014
rhumerus -25.3985 11.0129 -87.1572
rradius 56.2571
rwrist 7.81368
rhand -27.9252 28.3069
rfingers 7.12502
rthumb -1.31371 -1.66883
lclavicle 5.59082e-014 -2.32578e-014
lhumerus -39.1635 -16.9344 90.1074
lradius 89.5624
lwrist 22.8187
lhand -21.3264 52.2451
lfingers 7.12502
lthumb 5.0592 82.1647
rfemur 2.02549 6.53131 14.28
rtibia 17.019
rfoot -17.6515 -12.4944
rtoes -18.6665
lfemur -18.3361 6.62141 -14.7664
ltibia 12.9766
lfoot -20.4734 39.1091
ltoes 46.1996
381
root 3.48384 18.1176 -7.16217 -361.705 -54.7974 -354.903
lowerback 4.26243 0.299464 0.179894
upperback 2.77632 0.375764 -0.76257
thorax 0.465549 0.183923 -0.896585
lowerneck -14.1647 1.29463 -0.0544929
upperneck 15.7872 2.31252 -3.15727
head 7.21491 0.794031 -0.783215
rclavicle 1.12661e-013 7.15625e-015
rhumerus -25.2838 10.4655 -86.8778
rradius 55.0426
rwrist 8.06686
rhand -28.118 28.2501
rfingers 7.12502
rthumb -1.49985 -1.72436
lclavicle 1.12661e-013 7.15625e-015
lhumerus -39.1969 -16.059 89.8927
lradius 89.5912
lwrist 22.7688
lhand -20.1832 51.8812
lfingers 7.12502
lthumb 6.16296 81.7716
rfemur 1.76548 6.8972 14.2692
rtibia 16.6189
rfoot -17.9269 -12.0819
rtoes -16.0813
lfemur -18.5315 7.47256 -14.8681
ltibia 12.6462
lfoot -19.9939 38.6914
ltoes 46.3245
382
root 3.51386 18.1167 -7.26301 -361.905 -55.1248 -354.556
lowerback 4.16429 0.427216 0.268553
upperback 2.88099 0.548137 -0.782498
thorax 0.631821 0.271654 -0.971917
lowerneck -14.093 1.24292 -0.13141
upperneck 15.5989 2.3033 -3.4429
head 7.14443 0.762237 -0.864543
rclavicle 6.85807e-014 1.09332e-014
rhumerus -24.9993 9.96574 -86.615
rradius 53.8191
rwrist 8.17806
rhand -28.6416 28.8481
rfingers 7.12502
rthumb -2.00556 -1.12219
lclavicle 6.85807e-014 1.09332e-014
lhumerus -39.0678 -15.1892 89.7209
lradius 89.5798
lwrist 22.8521
lhand -20.1533 51.6179
lfingers 7.12502
lthumb 6.19181 81.5074
rfemur 1.54071 7.43395 14.2662
rtibia 16.3132
rfoot -17.8146 -12.1646
rtoes -18.5048
lfemur -18.6464 8.13702 -14.9805
ltibia 12.3086
lfoot -18.3175 38.8335
ltoes 44.296
383
root 3.5438 18.116 -7.34515 -361.782 -55.4229 -354.968
lowerback 4.25651 0.308961 0.842146
upperback 3.10434 0.406072 -0.699498
thorax 0.811188 0.208442 -1.20348
lowerneck -14.2 1.44591 -0.0810779
upperneck 15.5483 2.62244 -3.74022
head 7.15798 0.890031 -0.936108
rclavicle -2.39039e-014 7.95139e-015
rhumerus -24.6461 9.95054 -86.6187
rradius 52.5466
rwrist 8.52949
rhand -28.8027 28.6666
rfingers 7.12502
rthumb -2.1612 -1.30225
lclavicle -2.39039e-014 7.95139e-015
lhumerus -39.0202 -13.5814 89.4068
lradius 89.5429
lwrist 22.635
lhand -19.7849 51.4806
lfingers 7.12502
lthumb 6.54743 81.3594
rfemur 1.68441 7.79637 14.6873
rtibia 16.0006
rfoot -17.6032 -12.1982
rtoes -19.8268
lfemur -18.4013 7.29686 -14.2973
ltibia 12.2019
lfoot -19.1309 39.521
ltoes 42.6095
